<svg xmlns="http://www.w3.org/2000/svg" viewBox="0 0 32 32"><path d="M21.339 3.571q.893 0 1.411.107.607.143 1.339.446.554.25 1.214.661.571.393 1.036.839.518.554.875 1.054.393.625.661 1.232.268.625.429 1.304.125.571.125 1.446v10.679q0 .804-.125 1.411-.179.714-.429 1.339-.25.554-.661 1.214-.339.536-.875 1.036-.5.536-1.036.875-.661.411-1.214.661-.625.25-1.339.429-.607.125-1.411.125H10.66q-.875 0-1.446-.125-.679-.161-1.304-.429-.607-.268-1.232-.661-.482-.321-1.018-.875-.536-.5-.875-1.036-.411-.661-.661-1.214-.304-.732-.446-1.339-.107-.518-.107-1.411V10.66q0-.946.107-1.446.143-.589.446-1.304.268-.607.661-1.232.321-.482.875-1.018.536-.554 1.018-.875.625-.393 1.232-.661.732-.304 1.339-.446.518-.107 1.411-.107zm1.786 7.09q.357 0 .661-.125.286-.143.554-.411t.411-.554q.125-.25.125-.696t-.125-.696q-.143-.304-.375-.554-.268-.214-.589-.375-.304-.125-.661-.125-.446 0-.696.125-.304.125-.554.375-.268.268-.411.554-.125.25-.125.696t.125.696q.125.304.375.554.286.286.589.411.25.125.696.125zM16 23.125q.679 0 1.429-.161.768-.143 1.357-.393.518-.214 1.179-.661.732-.536 1.071-.875.482-.464.875-1.071.429-.643.643-1.179.286-.661.411-1.357.161-.75.161-1.429t-.161-1.429q-.125-.696-.411-1.357-.25-.607-.643-1.214-.375-.554-.875-1.036-.464-.482-1.071-.875-.714-.482-1.179-.661-.589-.25-1.357-.393-.75-.161-1.429-.161-.696 0-1.446.161-.732.143-1.339.393-.464.179-1.179.661-.607.393-1.071.875-.5.482-.875 1.036-.446.679-.661 1.214-.25.589-.393 1.357-.161.75-.161 1.429t.161 1.429q.143.768.393 1.357.179.464.661 1.179.393.607.875 1.071.339.339 1.071.875.661.446 1.179.661.607.25 1.339.393.75.161 1.446.161zm0-12.464q1.071 0 2.054.411 1.018.429 1.732 1.143.732.732 1.143 1.714.411.929.411 2.071 0 1.089-.411 2.071t-1.143 1.714q-.714.714-1.732 1.143-.982.411-2.054.411-1.089 0-2.071-.411t-1.714-1.143q-.768-.768-1.161-1.714T10.661 16q0-1.179.393-2.071.393-.946 1.161-1.714.732-.732 1.714-1.143T16 10.661z" fill="#000000"/></svg>