<svg xmlns="http://www.w3.org/2000/svg" viewBox="0 0 196.64 66.66" width="132px" height="44px"><defs><style>.cls-1{fill:#fff;}.cls-2{fill:#ffc10e;}</style></defs><g id="Layer_2" data-name="Layer 2"><g id="Layer_1-2" data-name="Layer 1"><path class="cls-1" d="M122.92,31.14c0-4.95-2.11-9.3-9.24-9.3a16.85,16.85,0,0,0-8.16,1.95l1.16,4a12,12,0,0,1,5.95-1.67c3.62,0,4.21,2.05,4.21,3.37v.31C109,29.76,104,32.49,104,38.06a6.57,6.57,0,0,0,7,6.58,7.87,7.87,0,0,0,6.34-2.82h.14s.9,3.77,5.87,2.33a32,32,0,0,1-.35-5.26ZM117,36.36a4.19,4.19,0,0,1-.14,1.18,4.15,4.15,0,0,1-4,2.79A2.69,2.69,0,0,1,110,37.44c0-3,3.3-3.82,7-3.8ZM6.52,15.11c.61,3.08,2.34,12,2.34,12,.73,3.67,1.4,7.51,1.9,10.55h.09c.49-3.23,1.27-6.29,2.09-10.08l2.92-12.47h6.45L25,27.91c.71,3.56,1.28,6.3,1.73,9.61h.09c.49-3.34,1.13-6.2,1.83-9.85l2.62-12.56H37.5l-7.67,29c-4.88,1.07-6.76-.9-7.43-4s-2-9.07-2-9.07a84.68,84.68,0,0,1-1.56-8.89h-.1c-.52,3.31-1.07,5.63-1.88,8.88l-3.22,13.1c-5,1-6.72-.48-7.68-4.48-.82-3.43-6-24.56-6-24.56Zm48.58,16c0-4.95-2.11-9.3-9.24-9.3a16.85,16.85,0,0,0-8.16,1.95l1.16,4a12,12,0,0,1,6-1.67c3.62,0,4.21,2.05,4.21,3.37v.31c-7.89,0-12.87,2.72-12.87,8.29a6.56,6.56,0,0,0,7,6.58,7.92,7.92,0,0,0,6.35-2.82h.13s.9,3.77,5.87,2.33a32,32,0,0,1-.35-5.26Zm-5.89,5.22a4.19,4.19,0,0,1-.14,1.18,4.14,4.14,0,0,1-4,2.79,2.7,2.7,0,0,1-2.93-2.89c0-3,3.3-3.82,7.05-3.8Zm15.72,7.79H59v-29h5.89Zm83-29V22H153v5.55h-5.13v8.2c0,2.65.67,3.94,2.68,3.94a8.82,8.82,0,0,0,2.24-.27l.08,4.61a14.11,14.11,0,0,1-4.27.63,6.56,6.56,0,0,1-4.8-1.82c-1.19-1.27-1.75-3.33-1.75-6.29V15.11Zm-15.7,7.23v4.11h.17a6.42,6.42,0,0,1,5.93-4.61,6,6,0,0,1,1.34.14v5.71a10.9,10.9,0,0,0-1.75-.16,4.6,4.6,0,0,0-4.81,3.84,8,8,0,0,0-.13,1.61V44.15h-6.09V22.34Zm-57.5,0v3h.09a6.85,6.85,0,0,1,6.35-3.46,6.23,6.23,0,0,1,6,3.91h.09A9,9,0,0,1,90,23a7.92,7.92,0,0,1,4.3-1.19c3.89,0,7.33,2.69,7.33,9.46V44.15H95.69V32.2c0-3.44-1.16-5.42-3.59-5.42a3.73,3.73,0,0,0-3.55,2.65,6.06,6.06,0,0,0-.25,1.77v13H82.38V31.72c0-2.92-1.12-4.94-3.51-4.94a4,4,0,0,0-3.6,2.79A5.12,5.12,0,0,0,75,31.36V44.15H69.06V22.34Z"/><path class="cls-1" d="M164.29,42.6a2.83,2.83,0,0,0,5.45,0l.23-6.39,6.39-.24a2.57,2.57,0,0,0,2.09-2.73,2.57,2.57,0,0,0-2.08-2.72L170,30.29l-.25-6.38a2.83,2.83,0,0,0-5.45,0l-.22,6.38-6.4.25a2.58,2.58,0,0,0-2.08,2.73A2.57,2.57,0,0,0,157.67,36l6.38.24Z"/><path class="cls-2" d="M164.74,15.51,163.58,2.37C163.46,1,165.1,0,167,0s3.55,1.08,3.44,2.37l-1.17,13.14c0,.83-1.09,1.4-2.27,1.4s-2.2-.63-2.27-1.4"/><path class="cls-2" d="M181.44,44l10.8,7.57c1.09.73,2.81-.13,3.77-1.79s.83-3.59-.34-4.16l-12-5.56a2.15,2.15,0,0,0-2.35,1.27,2.16,2.16,0,0,0,.08,2.67"/><path class="cls-2" d="M181.08,24.85c.59,1,1.65,1.62,2.35,1.27l12-5.56c1.19-.58,1.28-2.5.33-4.16s-2.67-2.52-3.76-1.79l-10.81,7.58c-.67.48-.66,1.64-.08,2.66"/><path class="cls-2" d="M164.74,51.15l-1.16,13.14c-.08,1.24,1.52,2.37,3.43,2.37s3.55-1.07,3.44-2.37l-1.17-13.14c-.06-.8-1.09-1.4-2.27-1.4s-2.19.62-2.27,1.4"/></g></g></svg>
