<svg xmlns="http://www.w3.org/2000/svg" viewBox="0 0 32 32"><path d="M25.786 30.214H6.215q-.179 0-.339-.054-.089-.036-.286-.196-.125-.161-.179-.304-.071-.286-.071-.321V2.66q0-.036.071-.321.036-.107.179-.268.179-.214.286-.232.161-.054.339-.054h19.571q.179 0 .339.054.089.036.286.196.125.161.179.304.071.286.071.321v26.679q0 .036-.071.321-.054.161-.179.286-.143.161-.286.214-.161.054-.339.054zM7.125 28.446h17.75V3.571H7.125zm1.75-5.321V5.339h14.25v17.786zm1.786-1.786H21.34V7.125H10.661zm6.214 4.447q0 .179-.054.339-.018.143-.196.286-.125.125-.286.179-.286.071-.339.071t-.339-.071q-.161-.054-.286-.179-.179-.179-.196-.286-.054-.161-.054-.339 0-.196.054-.357.018-.089.196-.268.161-.161.286-.214.286-.071.339-.071t.339.071q.161.054.286.179.179.196.196.321.054.161.054.339z" fill="#000000"/></svg>