<svg xmlns="http://www.w3.org/2000/svg" viewBox="0 0 32 32"><path d="M5.339 13.536q0 .821.232 1.839.232 1 .679 1.875.429.946 1.071 1.625t1.393 1.036h.107q.036.018.089.018.018.018.036.018.089.018.143 0 .089 0 .107-.107.089-.107.089-.161 0-.071.054-.268.054-.214.125-.571.125-.393.161-.554 0-.089.125-.464v-.143q0-.071-.036-.107v-.071l-.018-.089-.071-.071q-.321-.464-.464-.75-.304-.625-.411-.911-.179-.482-.286-1.018-.089-.357-.089-1.071 0-.804.125-1.375.143-.625.411-1.286.232-.607.625-1.214.321-.536.839-1.054.536-.536 1.071-.911.5-.321 1.304-.714.732-.304 1.464-.446.804-.161 1.732-.161.786 0 1.464.143.804.143 1.339.357.393.125 1.196.607.625.375 1 .768.411.339.839.982.482.804.625 1.143.232.589.375 1.286.125.571.125 1.411 0 .964-.089 1.589-.107.679-.321 1.464-.196.714-.464 1.321-.214.482-.661 1.089-.375.5-.786.839-.5.5-.875.696-.536.286-1 .446-.446.125-1.054.125-.571 0-1.125-.232-.5-.196-.875-.643-.393-.464-.5-.982-.125-.518.036-1.125.125-.679.375-1.464 0-.036.464-1.464.232-.661.393-1.375.143-.661.143-1.196 0-.482-.143-.875-.179-.446-.393-.75-.232-.375-.625-.536-.375-.143-.946-.143-.643 0-1.179.268-.5.232-.964.857-.464.643-.661 1.268-.214.75-.214 1.607 0 .375.054 1 .054.393.196.75l.25.679-.286 1.089q-.054.268-.125.571l-.161.589q-.071.304-.304 1.339-.196.696-.357 1.411-.036.339-.143.696-.089.357-.161.679-.018.071-.25 1.089-.107.304-.125.411-.018.054-.036.134t-.027.125-.009.063q-.089.286-.143 1.125-.071.786-.071 1.268.018.339.071 1.25 0 .268.089 1.071.036.429.161.661.107.25.25.268.196.054.339-.054.232-.196.411-.464.446-.696.518-.911.232-.464.625-1.125.429-.875.571-1.196.161-.446.339-1.089l1.036-3.911q.25.429.589.732.429.339.911.589.518.268 1.125.429.518.125 1.214.125 1.018 0 1.821-.214.875-.179 1.643-.589.696-.375 1.5-.946.714-.554 1.25-1.25.696-.804 1.071-1.5.393-.732.75-1.75.286-.857.464-1.929.161-.964.161-2.071 0-.946-.196-1.964-.179-.875-.589-1.804-.357-.821-.946-1.625-.571-.786-1.25-1.375-.696-.643-1.5-1.161-.661-.429-1.75-.839-.946-.339-2-.536-1.018-.196-2.054-.196-1.357 0-2.554.232-1.268.214-2.232.589-1.036.393-1.911.964-.804.518-1.554 1.25-.625.625-1.214 1.482-.482.75-.875 1.714-.357.911-.5 1.804-.196 1.071-.196 1.946z" fill="#000000"/></svg>