<svg xmlns="http://www.w3.org/2000/svg" viewBox="0 0 32 32"><path d="M30.214 7.875q-.268.107-.339.125-.196.089-.339.125-.268.089-.446.161-.268.054-.339.089-.643.143-.786.179-.446.089-.839.125l-.036.036q.429-.232.821-.554.196-.196.661-.732.429-.643.5-.768.196-.339.393-.875l.036-.071q-.464.232-.821.446-.196.107-.857.339-.214.089-.875.304-.036 0-.152.036t-.339.089-.455.107q-.375-.375-.821-.732-.107-.054-.295-.161t-.339-.196-.295-.161q-.661-.268-1.054-.357-.446-.089-1.161-.089-1.125 0-2.089.375-.982.429-1.786 1.196-.839.839-1.214 1.75-.411.929-.411 2.054 0 .179.036.321v.143q0 .125.018.161 0 .071.036.321.054.107.071.268-.946 0-1.661-.143-.875-.125-1.625-.357-.75-.196-1.571-.5-.661-.25-1.464-.643-.857-.429-1.411-.786-.679-.482-1.286-.946-.571-.429-1.179-1.018-.429-.393-1.071-1.196l-.018-.036q-.071.161-.143.295t-.125.223-.054.107q-.054.143-.125.375t-.089.286q-.036.125-.098.375t-.08.339q-.036.286-.036.732 0 .732.161 1.375.179.679.518 1.214.304.536.75 1.054.482.482 1 .821-.214 0-.643-.071-.214-.036-.429-.08t-.232-.045q-.089-.036-.295-.107t-.295-.107l-.607-.286.036.036v.071q0 1.071.321 1.875.25.768.929 1.554.554.679 1.446 1.214.732.464 1.714.625-.196.107-.339.107l-.357.054h-.375q-.179.036-.393.036h-.25q-.036 0-.25-.036-.143 0-.286-.036-.089 0-.125-.018h-.125q.232.75.786 1.5.518.679 1.179 1.179.75.554 1.464.786.946.286 1.696.286-.5.357-1.482.929-.821.429-1.607.75-.929.286-1.786.446-.839.143-1.911.143h-.696q-.161-.018-.339-.018-.018 0-.339-.036h.071q1.071.643 1.857 1 .839.393 2.036.786 1 .286 2.196.464 1.071.161 2.25.161h.018q2.018 0 3.607-.339 1.732-.357 3.089-1.036 1.446-.679 2.696-1.607 1.268-.929 2.179-1.982 1-1.125 1.75-2.357.714-1.196 1.25-2.589.5-1.339.75-2.714.25-1.411.25-2.696v-.679q.071-.036.339-.25.286-.214.446-.375.375-.321.714-.661.268-.268.625-.714.393-.518.554-.75z" fill="#000000"/></svg>