<svg xmlns="http://www.w3.org/2000/svg" viewBox="0 0 32 32"><path d="M13.071 19.929v-8.518l7.679 4.268zm16.858-10l-.25-1.143q-.143-.607-.339-1.071-.232-.482-.536-.786-.393-.446-.804-.75-.321-.196-.821-.339-.071 0-.714-.125-.268-.054-.5-.054-1.446-.107-1.554-.107-.857-.089-1.696-.089-.821-.036-1.679-.054-1.429-.036-1.536-.036-1.321-.036-1.375-.036h-4.25q-.054 0-1.339.036-.143 0-1.571.036-.857.018-1.679.054-.857 0-1.696.089-.107 0-1.554.107-.179 0-.5.054H5.5q-.054.018-.134.036t-.152.036l-.411.054q-.464.125-.804.339-.464.339-.821.75-.286.286-.518.786-.232.554-.357 1.071l-.25 1.143-.125 1.536q-.089.625-.125 1.589-.018.375-.018 1.786v2.321q0 1.375.018 1.75.036 1 .125 1.625l.125 1.518.25 1.161q.107.411.357 1.036.214.464.518.804.357.357.857.732.393.232.893.339.179.036.25.036l.321.054q.143 0 .214.036l.625.125 1.071.054q.036 0 .116.009t.223.018.286.009q.339 0 .768.036.071 0 .821.036.446 0 .804.036h.786q.661 0 .821.018h1.5q.929.071 1.268.071h3.321q.536-.036 1.375-.036.107 0 .652-.027t.884-.045q.464 0 .839-.018h.839q.679 0 1.696-.107.571-.018 1.554-.089.196-.054.5-.089.643-.125.714-.125.5-.143.821-.339.321-.214.804-.732.339-.375.536-.804.143-.339.339-1.036l.25-1.161.143-1.518q.071-.393.107-1.625.036-1.5.036-1.75v-2.321q0-.25-.036-1.75-.018-.232-.045-.83t-.045-.795z" fill="#000000"/></svg>